<?xml version="1.0" encoding="UTF-8" standalone="no"?>
<!-- Created with Inkscape (http://www.inkscape.org/) -->

<svg
   width="1080"
   height="1080"
   viewBox="0 0 285.74999 285.75"
   version="1.1"
   id="svg1"
   xml:space="preserve"
   inkscape:version="1.3.2 (091e20e, 2023-11-25, custom)"
   sodipodi:docname="icons-web.svg"
   xmlns:inkscape="http://www.inkscape.org/namespaces/inkscape"
   xmlns:sodipodi="http://sodipodi.sourceforge.net/DTD/sodipodi-0.dtd"
   xmlns="http://www.w3.org/2000/svg"
   xmlns:svg="http://www.w3.org/2000/svg"><sodipodi:namedview
     id="namedview1"
     pagecolor="#505050"
     bordercolor="#eeeeee"
     borderopacity="1"
     inkscape:showpageshadow="0"
     inkscape:pageopacity="0"
     inkscape:pagecheckerboard="0"
     inkscape:deskcolor="#d1d1d1"
     inkscape:document-units="mm"
     inkscape:zoom="0.25354609"
     inkscape:cx="1116.1679"
     inkscape:cy="443.70631"
     inkscape:window-width="1920"
     inkscape:window-height="1001"
     inkscape:window-x="-9"
     inkscape:window-y="-9"
     inkscape:window-maximized="1"
     inkscape:current-layer="layer1"><inkscape:page
       x="0"
       y="0"
       width="285.75"
       height="285.75"
       id="page1"
       margin="0"
       bleed="0" /><inkscape:page
       x="295.75"
       y="0"
       width="285.75"
       height="285.75"
       id="page2"
       margin="0"
       bleed="0" /><inkscape:page
       x="591.5"
       y="0"
       width="285.75"
       height="285.75"
       id="page3"
       margin="0"
       bleed="0"
       inkscape:export-filename="icons\icon-time.png"
       inkscape:export-xdpi="96"
       inkscape:export-ydpi="96" /></sodipodi:namedview><defs
     id="defs1" /><g
     inkscape:label="Layer 1"
     inkscape:groupmode="layer"
     id="layer1"><path
       style="fill:#ffd42a;stroke-width:2.21711;fill-opacity:1"
       d="m 86.929827,267.84478 c -5.039559,-8.65475 -9.372314,-16.05703 -9.628327,-16.4496 -0.354736,-0.54389 -4.846224,0.0526 -18.878704,2.50731 -10.127263,1.77155 -18.608579,3.1486 -18.847379,3.06014 -0.362764,-0.13436 27.691779,-61.13602 28.477859,-61.92209 0.546117,-0.54613 4.475095,2.40128 7.179829,5.38611 1.551648,1.71235 4.658368,6.12207 6.903823,9.79943 6.923416,11.33838 13.919179,16.96634 23.654462,19.02947 4.68006,0.99185 8.23323,1.06765 12.46075,0.26594 1.70945,-0.3242 3.19313,-0.50438 3.29709,-0.40042 0.23273,0.23272 -24.335547,53.30155 -24.988082,53.97561 -0.257679,0.2662 -4.59177,-6.59718 -9.631321,-15.2519 z m 101.471833,3.43292 c -0.21218,-0.34335 -4.31872,-9.74632 -9.12562,-20.89551 l -8.73981,-20.27127 3.03448,-0.009 c 4.24185,-0.0111 9.91788,-1.45755 14.44243,-3.67781 5.62298,-2.75932 10.60804,-8.00924 16.14025,-16.99782 2.56759,-4.17178 5.83295,-8.6321 7.3762,-10.07568 3.02416,-2.82873 10.9896,-7.16323 11.73811,-6.38745 0.53747,0.55698 23.49573,53.71486 23.2842,53.91247 -0.077,0.0719 -8.32304,-1.55464 -18.32476,-3.61432 -10.00176,-2.05967 -18.44898,-3.74734 -18.77162,-3.75035 -0.32262,-0.002 -4.28229,5.96224 -8.79917,13.25614 -4.51695,7.29394 -9.03525,14.58306 -10.04072,16.19809 -1.01459,1.62964 -1.99986,2.65863 -2.21397,2.31218 z m -81.84892,-51.44713 c -6.954982,-1.95147 -10.045403,-4.83359 -17.91103,-16.70382 -6.140955,-9.2675 -10.093456,-13.64962 -14.17043,-15.71066 -1.255706,-0.63482 -6.483653,-2.95167 -11.617638,-5.1486 -8.221806,-3.51823 -9.730468,-4.38358 -12.656023,-7.25947 -1.958491,-1.92523 -4.011668,-4.70939 -5.003405,-6.78473 -1.474266,-3.0851 -1.686139,-4.20776 -1.716006,-9.09247 -0.01775,-3.06507 0.449703,-9.685 1.040941,-14.71097 1.428308,-12.14181 1.211947,-13.21043 -5.454222,-26.93855 -2.898355,-5.96878 -5.575035,-12.11901 -5.948199,-13.66715 -1.060271,-4.398776 -0.394849,-10.238844 1.66113,-14.57883 1.888565,-3.986602 2.874607,-5.114028 12.654561,-14.469135 9.92978,-9.498401 10.749288,-11.003939 14.252049,-26.182005 2.300067,-9.966565 4.348235,-14.826686 7.649772,-18.152185 5.400105,-5.43926 9.09329,-6.680561 22.160524,-7.448237 17.173416,-1.008946 18.148686,-1.353751 31.142116,-11.009927 5.10371,-3.7928788 10.15417,-7.0557366 12.02552,-7.7690793 6.02022,-2.2948401 12.79137,-2.044257 18.20476,0.6737135 1.14005,0.5724157 5.8916,3.8747409 10.559,7.3385018 12.64935,9.38732 13.72133,9.761703 30.82905,10.766791 13.04716,0.766503 16.92616,2.073914 22.26748,7.505149 3.18115,3.234709 5.20794,8.106823 7.54386,18.134475 3.54319,15.210075 4.28843,16.578458 14.21625,26.103046 9.89033,9.488648 10.80837,10.538303 12.68935,14.508892 2.056,4.339986 2.72139,10.180054 1.66111,14.57883 -0.37315,1.54814 -3.05247,7.69837 -5.95399,13.66715 -6.57857,13.53277 -6.89208,15.01016 -5.5567,26.18455 2.11191,17.67244 1.80982,21.2427 -2.33218,27.5618 -3.10521,4.73731 -6.34149,6.9379 -16.82144,11.43807 -5.26921,2.26261 -10.64536,4.73402 -11.94702,5.49203 -3.63079,2.11428 -7.41149,6.53412 -13.42601,15.69587 -7.4553,11.35635 -10.59088,14.1555 -17.97652,16.04761 -5.10162,1.30698 -8.23463,0.87613 -20.1992,-2.77782 -9.0247,-2.75616 -10.502,-3.0456 -15.54519,-3.0456 -5.05075,0 -6.50713,0.28643 -15.54525,3.05706 -11.26221,3.45248 -15.92419,4.05734 -20.77702,2.6957 z m 46.88372,-38.08268 c 21.25685,-3.20443 39.88058,-15.87881 50.90411,-34.64267 3.02769,-5.15365 5.67644,-11.7665 7.61635,-19.01497 1.3434,-5.0196 1.50798,-6.75544 1.53416,-16.1818 0.0255,-9.18465 -0.15055,-11.28436 -1.35232,-16.131832 -8.15301,-32.884814 -36.10995,-55.141578 -69.26375,-55.141578 -18.25195,0 -35.69949,7.012169 -49.455836,19.876291 -9.482991,8.867937 -17.657306,24.046002 -20.414161,37.905035 -1.316547,6.618404 -1.045841,22.285294 0.491598,28.450714 4.850662,19.45203 14.95624,33.91069 31.019179,44.38104 14.28495,9.31142 31.82757,13.07657 48.92067,10.49977 z m -16.30011,-22.35627 c -17.93786,-5.30354 -30.9363,-19.03977 -34.41962,-36.37328 -0.76669,-3.81506 -0.90659,-8.13868 -0.77362,-23.911609 l 0.16228,-19.254453 20.3848,-8.73454 20.38479,-8.734564 20.38478,8.73569 20.38478,8.735674 -0.0111,21.306502 -0.0111,21.30647 -1.83975,5.44383 c -4.21474,12.47134 -12.76201,22.25108 -24.65638,28.21186 -3.3529,1.68025 -12.9084,4.80902 -14.46495,4.73618 -0.36724,-0.0177 -2.85408,-0.67763 -5.52639,-1.46776 z m 2.40417,-29.65368 c 1.82773,-0.92549 26.70816,-25.72344 27.71806,-27.62608 1.26992,-2.392628 1.03367,-4.842745 -0.66114,-6.856904 -1.73517,-2.062098 -4.73555,-2.863876 -6.79558,-1.815911 -0.75992,0.386577 -6.13761,5.428057 -11.95044,11.203345 l -10.56882,10.50046 -4.68311,-4.73958 c -2.57573,-2.60672 -5.44112,-5.13962 -6.36755,-5.62871 -5.06494,-2.6737 -10.49866,3.27999 -7.74201,8.48291 1.16985,2.20807 14.97028,15.77855 16.75911,16.47992 1.96396,0.77009 2.77166,0.77018 4.29148,5.5e-4 z"
       id="path1" /><path
       style="fill:#ffd42a;stroke-width:2.07554;fill-opacity:1"
       d="m 373.82413,256.8101 -3.57717,-2.39874 -2.91834,1.00792 c -8.27535,2.85816 -19.69391,-0.76882 -30.28729,-9.62042 -4.12351,-3.44549 -4.1694,-3.83197 -0.65874,-5.54958 3.24421,-1.58725 8.58521,-2.06149 13.47515,-1.19651 l 2.47117,0.43713 -2.78967,-2.9083 c -1.53433,-1.59958 -3.69283,-3.99862 -4.79666,-5.33122 l -2.00696,-2.4229 -4.81352,-0.0484 c -4.34555,-0.0436 -5.21391,-0.24049 -8.93215,-2.02522 -6.66139,-3.19747 -12.42737,-8.79535 -16.42734,-15.94848 l -1.73255,-3.09832 2.79122,-0.66958 c 3.52069,-0.84462 8.36615,-0.35594 13.44664,1.35613 2.11425,0.71247 3.90747,1.23301 3.98497,1.15676 0.0774,-0.0762 -1.22874,-3.02007 -2.90274,-6.54182 l -3.04365,-6.40315 -2.58877,-0.006 c -3.9535,-0.008 -7.87722,-2.13255 -12.42708,-6.7282 -5.01514,-5.06561 -8.2163,-11.11808 -9.91195,-18.74061 l -0.35282,-1.58606 3.73627,0.26924 c 4.36668,0.31469 7.91475,1.91912 12.49624,5.65079 1.67575,1.36493 3.04682,2.38249 3.04682,2.26123 0,-0.12121 -0.49422,-2.62246 -1.09829,-5.55828 -0.60408,-2.93582 -1.09831,-6.05975 -1.09831,-6.94208 0,-1.03775 -0.33937,-1.71921 -0.96101,-1.92978 -7.87776,-2.66849 -12.22169,-7.21779 -15.26743,-15.98921 -1.47855,-4.25807 -2.6696,-12.72829 -2.16765,-15.41521 0.31108,-1.66512 0.48003,-1.8024 1.81867,-1.47795 4.83871,1.1728 10.25711,5.61783 13.28629,10.89951 l 1.63336,2.84797 0.0515,-4.6678 c 0.0282,-2.56727 0.23021,-6.09971 0.44864,-7.84982 l 0.39716,-3.18202 -2.5867,-1.85833 c -2.93732,-2.11026 -5.63257,-5.75038 -7.29169,-9.84798 -1.55202,-3.83308 -1.66221,-16.38312 -0.19053,-21.713647 0.53748,-1.94698 1.07054,-3.63325 1.18455,-3.74726 0.11394,-0.11394 0.94333,0.17331 1.84291,0.6385 3.58988,1.85642 7.98406,8.424057 9.54767,14.270177 0.37332,1.39584 0.82496,2.53788 1.00362,2.53788 0.1787,0 0.83592,-1.66807 1.46058,-3.70678 0.62465,-2.03874 1.70044,-5.218937 2.39066,-7.067097 l 1.25491,-3.36033 -1.74874,-2.17607 c -5.08342,-6.32565 -5.67705,-16.79216 -1.53409,-27.04906 1.51466,-3.74996 4.7659,-9.35926 5.42474,-9.35926 0.81403,0 3.69825,4.51529 4.86014,7.6086 0.7188,1.91361 1.28039,5.01917 1.46759,8.11531 l 0.30321,5.01544 3.90452,-5.79593 c 2.14747,-3.18777 4.13245,-6.09593 4.41109,-6.46259 0.32765,-0.43117 0.0851,-1.64634 -0.68644,-3.43997 -2.43145,-5.65202 -1.31998,-13.6855 2.94975,-21.32048 2.01269,-3.59904 9.421,-11.72713 10.68861,-11.72713 0.33365,0 1.14254,1.1738 1.79758,2.60847 1.60248,3.50971 1.5926,10.96487 -0.0212,15.92542 -0.61407,1.8877 -0.93837,3.43218 -0.72064,3.43218 0.2177,0 0.99492,-0.64619 1.72715,-1.43602 2.0936,-2.25824 9.6242,-7.99919 15.31884,-11.67829 6.67418,-4.31196 9.48582,-4.49087 11.48878,-0.73104 1.29121,2.42381 -0.16625,4.70073 -4.61662,7.21236 -2.97328,1.67803 -12.21581,8.56376 -15.71356,11.7067 l -1.99287,1.79069 4.84748,-0.19095 c 6.00796,-0.23655 9.39078,0.77341 12.69638,3.79059 l 2.36727,2.16074 -1.64746,1.40155 c -2.53574,2.15722 -10.01674,5.61108 -14.8073,6.83631 -4.80379,1.22859 -11.75243,1.45495 -14.56513,0.47443 -1.63534,-0.57007 -1.90126,-0.50585 -2.84185,0.68644 -1.42898,1.81136 -7.05007,10.25588 -7.05007,10.59127 0,0.14985 1.14578,-0.23433 2.54618,-0.85379 5.08091,-2.24754 12.45043,-1.84244 15.85402,0.87151 l 1.59854,1.27461 -4.9403,4.94031 c -5.93073,5.93072 -11.56278,9.02236 -18.35335,10.07478 -2.26526,0.35107 -4.38561,0.70721 -4.7119,0.79144 -0.5281,0.13636 -1.52965,2.876527 -3.88078,10.617627 l -0.72766,2.39581 1.22797,-0.88511 c 2.72402,-1.96344 6.71338,-3.7332 9.40157,-4.17073 2.48263,-0.40406 7.7481,0.0774 8.44272,0.77208 0.12765,0.12765 -0.82764,2.28963 -2.12277,4.80445 -3.18811,6.19053 -9.18491,12.29371 -14.65542,14.91538 -2.14754,1.02917 -4.37139,1.9933 -4.94189,2.14249 -0.87403,0.22856 -1.09366,0.99588 -1.39567,4.87595 -0.19718,2.53257 -0.35988,5.5208 -0.36169,6.64049 l -0.004,2.03579 2.54008,-2.71555 c 3.05774,-3.26897 7.05753,-5.32153 11.32601,-5.81212 3.09211,-0.35539 3.15764,-0.3347 3.15764,0.99771 0,2.80758 -2.24087,9.96556 -4.44781,14.20758 -2.50384,4.81269 -6.0611,9.12197 -9.06009,10.97545 -1.59778,0.9875 -1.88112,1.43926 -1.6547,2.6385 1.13754,6.02526 2.19463,10.50404 2.47425,10.48316 0.18285,-0.0145 1.25175,-1.49715 2.37539,-3.29664 1.33905,-2.14448 2.94736,-3.8454 4.66779,-4.93653 2.93294,-1.86016 6.53655,-3.11495 7.15888,-2.49276 0.22457,0.22451 0.40832,3.29132 0.40832,6.81508 0,5.19363 -0.2445,7.18552 -1.29109,10.51885 -1.58378,5.04422 -2.87937,7.63926 -5.04579,10.1067 l -1.66234,1.89328 2.61337,5.26096 c 1.43735,2.89353 2.74294,5.26061 2.90131,5.26018 0.15836,-4.2e-4 0.71628,-1.45854 1.23986,-3.24031 0.52355,-1.78174 1.76958,-4.31155 2.76891,-5.62177 1.8899,-2.47782 5.15642,-5.01873 6.06332,-4.71643 0.80292,0.26764 2.54724,5.10599 3.49769,9.70186 1.12526,5.44123 0.7556,14.0185 -0.77371,17.95264 l -1.09528,2.81762 4.23257,4.5876 4.23258,4.58759 0.27849,-3.83571 c 0.32244,-4.44096 2.02361,-8.81222 4.26527,-10.95986 l 1.55227,-1.48719 2.19009,2.93278 c 5.19815,6.96097 8.14944,14.5006 8.71399,22.26169 l 0.35163,4.83377 3.17236,2.01523 c 1.74479,1.10837 3.60987,2.68294 4.14459,3.49902 1.88355,2.87467 0.57646,7.70305 -2.5186,9.30356 -2.81567,1.45605 -5.08251,1.06172 -9.0007,-1.56572 z m 118.43631,-0.31968 c -2.27062,-1.3845 -2.9181,-2.67414 -2.9181,-5.81224 0,-2.19021 0.26527,-2.81335 1.82722,-4.29202 1.00497,-0.95143 2.98192,-2.3999 4.39322,-3.21889 l 2.56599,-1.48903 v -4.0244 c 0,-4.918 1.07274,-9.27837 3.60182,-14.64029 2.30233,-4.88116 6.67843,-11.17347 7.56732,-10.88086 1.15717,0.38092 4.16674,4.79872 4.75351,6.97776 0.31694,1.17708 0.59771,3.66384 0.62393,5.52613 l 0.0477,3.38601 2.72997,-2.66617 c 1.5015,-1.46641 3.43084,-3.54053 4.28741,-4.6092 l 1.55742,-1.94302 -0.99696,-2.99935 c -2.11736,-6.37001 -1.92701,-14.72161 0.51267,-22.49424 1.66695,-5.31073 1.7859,-5.4279 4.19435,-4.13085 2.49234,1.3422 5.36341,5.02732 6.56454,8.42576 0.49948,1.41321 1.08732,3.04821 1.30631,3.6333 0.31668,0.84622 0.94092,-4.7e-4 3.05178,-4.13938 l 2.65363,-5.2032 -1.89388,-2.48112 c -3.89717,-5.10559 -5.93937,-12.18136 -5.95538,-20.63416 -0.0124,-6.04253 0.21636,-6.77359 2.10854,-6.76687 3.41457,0.0125 8.85367,4.46114 11.30139,9.24419 0.51671,1.00966 1.01934,1.75102 1.11695,1.64745 0.0975,-0.10357 0.71947,-2.87829 1.38187,-6.166 0.98916,-4.90943 1.07287,-6.05429 0.46847,-6.40639 -6.86498,-3.99899 -12.30877,-13.51011 -14.40747,-25.17196 l -0.33493,-1.86118 3.2886,0.29822 c 4.21629,0.38231 7.848,2.1554 11.12975,5.43379 l 2.60847,2.60581 v -3.18821 c 0,-1.75351 -0.15504,-4.67199 -0.34464,-6.48546 l -0.34462,-3.29728 -2.91136,-0.91772 c -3.74887,-1.18173 -8.93918,-4.65848 -11.79089,-7.89818 -2.72924,-3.1006 -6.91379,-9.74148 -7.41119,-11.76158 -0.3374,-1.37025 -0.19448,-1.52079 2.0075,-2.11371 4.23957,-1.14158 10.30854,0.37013 14.587,3.63346 0.99823,0.76141 1.81498,1.16547 1.81498,0.89796 0,-0.26754 -0.85654,-3.19139 -1.90341,-6.49745 l -1.90342,-6.011037 -4.44218,-0.59474 c -6.81216,-0.91205 -12.55278,-3.98723 -18.80167,-10.07183 -2.71634,-2.64491 -4.83069,-5.13327 -4.69856,-5.5297 0.13221,-0.39641 1.21361,-1.22801 2.40324,-1.84797 3.16436,-1.64908 8.94052,-1.83021 13.14086,-0.41206 1.80939,0.61087 3.37551,1.02496 3.4803,0.92017 0.10481,-0.10482 -1.19416,-2.24878 -2.88655,-4.76445 -4.85376,-7.21496 -4.28345,-6.73308 -7.12247,-6.01821 -3.71073,0.93439 -8.98487,0.74927 -13.83419,-0.48555 -4.4481,-1.13266 -13.14484,-5.14901 -15.6014,-7.20509 l -1.37287,-1.14906 2.36728,-2.10123 c 3.64673,-3.23688 10.01296,-4.88747 15.07824,-3.90935 2.28797,0.44181 2.53296,0.40267 1.94135,-0.31017 -1.43214,-1.72564 -9.02372,-7.59684 -14.89506,-11.51962 -3.37419,-2.25436 -6.31743,-4.38575 -6.54053,-4.73639 -0.22312,-0.35066 -0.40944,-1.3976 -0.41407,-2.32657 -0.0104,-2.26466 2.15856,-4.29673 4.58798,-4.29673 2.76967,0 12.49766,6.39989 21.15686,13.91876 2.93051,2.54461 3.43997,2.82253 3.07435,1.67714 -2.57336,-8.06132 -2.60412,-16.57161 -0.0724,-20.0339 0.7287,-0.99654 0.84709,-0.96734 3.0049,0.7417 3.01174,2.38535 8.5562,9.35188 10.48585,13.17533 3.53435,7.00306 4.38509,14.72692 2.18531,19.84041 -0.71089,1.65257 -0.97241,2.96121 -0.68642,3.4352 0.75217,1.24673 9.05631,12.49547 9.22447,12.49547 0.0849,0 0.18244,-2.0604 0.21677,-4.57867 0.0826,-6.06129 1.61462,-11.00673 4.37238,-14.11435 l 2.0933,-2.35882 1.20763,1.69594 c 1.94451,2.73082 4.93722,9.46079 5.90635,13.28208 1.28061,5.04944 0.89267,13.60102 -0.78625,17.33144 -0.67968,1.51018 -1.97674,3.51156 -2.88238,4.44752 l -1.64661,1.70175 1.61106,4.06434 c 0.88606,2.235387 2.05527,5.652777 2.59823,7.594207 l 0.98719,3.52987 1.1924,-3.52987 c 0.65582,-1.94143 1.83087,-4.78813 2.61121,-6.326017 1.47201,-2.901 7.21003,-8.65932 8.27503,-8.30432 1.19113,0.39703 2.67277,6.68179 2.94064,12.473367 0.29344,6.34422 -0.57476,11.42935 -2.64378,15.48494 -1.34779,2.64191 -6.18667,7.94422 -7.6834,8.41926 -0.94705,0.30058 -0.99902,0.83146 -0.7138,7.29302 0.16916,3.83285 0.4158,7.31197 0.54803,7.73137 0.14985,0.47555 0.84227,-0.14446 1.83959,-1.64746 3.81593,-5.75074 8.72569,-9.74947 13.06674,-10.64212 l 1.78473,-0.36699 v 4.18542 c 0,14.14126 -6.72963,25.57456 -17.0747,29.00903 -0.63746,0.21162 -1.12403,1.83095 -1.7937,5.96955 -0.50544,3.12353 -1.0775,6.41201 -1.27125,7.30771 -0.35207,1.62761 -0.35056,1.62705 2.60206,-0.95583 3.24265,-2.83659 9.50705,-6.12397 12.73252,-6.68166 1.13262,-0.19593 2.05932,-0.19531 2.05932,0.001 0,1.54596 -2.06233,7.67047 -3.57872,10.62778 -2.4818,4.84002 -3.52683,6.31409 -6.96269,9.82118 -3.50936,3.58212 -6.76592,5.32406 -11.62829,6.21998 -2.00225,0.36893 -3.64045,0.88692 -3.64045,1.1511 0,0.26417 -1.22982,3.08754 -2.73294,6.27415 -1.50313,3.18663 -2.42983,5.66003 -2.05933,5.49648 7.25827,-3.20419 7.83861,-3.35951 12.59022,-3.36961 2.94475,-0.006 5.02558,0.23777 5.42393,0.63613 0.95409,0.95408 -2.65342,7.09447 -6.72546,11.44749 -6.37666,6.81668 -12.413,9.71336 -20.22522,9.70559 l -4.11865,-0.004 -2.31611,2.83116 c -1.27388,1.55715 -3.30933,3.97064 -4.52327,5.36335 l -2.20715,2.53219 2.87582,-0.53117 c 5.22417,-0.96494 13.56838,0.63329 14.94626,2.86274 0.90651,1.46676 -6.95675,7.8184 -13.71791,11.08079 -7.64906,3.69084 -15.21563,4.5449 -20.56252,2.32095 -1.80551,-0.75097 -1.99249,-0.71459 -4.11865,0.80159 -5.07636,3.61996 -7.54212,4.16045 -10.5668,2.31617 z M 385.76628,222.77715 c -1.00171,-0.86166 -1.48986,-1.81294 -1.47936,-2.88304 0.008,-0.87841 2.08008,-13.43222 4.60329,-27.8974 l 4.58762,-26.30031 -20.24733,-19.86536 c -19.36501,-18.99972 -20.23076,-19.93556 -19.86733,-21.47592 0.83908,-3.55645 0.58428,-3.49001 29.98717,-7.81904 14.92841,-2.19793 27.18936,-4.04779 27.24654,-4.1108 0.0571,-0.0631 5.66449,-11.40928 12.46071,-25.213887 11.17628,-22.70157 12.50265,-25.13592 13.8844,-25.48272 3.28642,-0.82484 3.61178,-0.32121 16.53525,25.5956 6.70213,13.440487 12.2623,24.601567 12.35591,24.802397 0.0936,0.20091 12.15547,2.12811 26.8041,4.28285 14.64863,2.15474 27.0599,4.04376 27.58057,4.19783 1.63948,0.48509 3.2671,3.0412 2.91932,4.58463 -0.20029,0.88903 -7.53849,8.49911 -20.18948,20.93763 l -19.87479,19.54097 4.62233,26.5878 c 2.54228,14.62328 4.59351,27.19719 4.55833,27.94201 -0.0797,1.68532 -2.01419,3.3142 -3.93304,3.31165 -0.82226,-0.001 -11.90346,-5.47547 -25.61202,-12.65292 l -24.1627,-12.65097 -1.82549,0.85667 c -1.00402,0.47119 -11.92949,6.28857 -24.27885,12.9275 -12.34933,6.63895 -23.06687,12.07079 -23.81672,12.07079 -0.74987,0 -2.03616,-0.57868 -2.85843,-1.28596 z"
       id="path2" /><path
       style="fill:#ffd42a;stroke-width:2.31603;fill-opacity:1"
       d="m 762.3875,243.42758 c -23.8057,-3.08891 -45.00376,-13.50514 -61.05739,-30.00217 -14.20208,-14.59433 -23.03973,-31.66814 -27.31037,-52.76198 -1.53896,-7.60133 -1.53588,-28.20684 0.005,-35.99995 7.2917,-36.869294 32.71413,-66.254874 67.28696,-77.776424 12.26917,-4.08877 17.65906,-4.90431 32.41193,-4.90431 11.39878,0 14.04218,0.1876 19.60904,1.39096 31.85606,6.88672 56.73689,25.9903 71.04532,54.54884 3.74289,7.470544 6.78055,16.264254 8.70806,25.208974 1.86218,8.64154 2.05126,29.14313 0.34613,37.53191 -4.4653,21.96816 -14.18883,40.12734 -29.31609,54.74936 -15.41269,14.89793 -34.47957,24.26379 -55.99847,27.50711 -5.57587,0.84038 -20.84455,1.14164 -25.73049,0.50768 z m 40.10159,-65.13537 c 2.84253,-0.81522 6.05091,-4.05692 6.81177,-6.88252 1.33783,-4.96835 0.44806,-6.31725 -13.26406,-20.10886 l -12.50828,-12.58074 v -24.97187 c 0,-27.334024 7.9e-4,-27.327394 -3.64147,-30.753964 -1.77991,-1.67453 -2.32914,-1.83835 -6.16305,-1.83835 -3.83393,0 -4.38315,0.16375 -6.16307,1.83835 -3.67452,3.45693 -3.64147,3.15101 -3.64147,33.703054 0,22.57527 0.16421,28.2985 0.85733,29.89283 0.47154,1.08453 7.31309,8.39765 15.20348,16.25137 16.07281,15.99812 17.40693,16.9139 22.50882,15.4507 z m -162.96423,52.00065 c -0.84238,-0.33591 -2.17841,-1.21461 -2.96894,-1.95271 -4.73049,-4.41669 -4.13369,-11.33097 1.3275,-15.37959 1.66815,-1.23669 2.50838,-1.28811 23.81222,-1.45741 21.39319,-0.17 22.16637,-0.13526 24.75057,1.11586 7.21601,3.4932 7.22493,13.9211 0.0139,17.19562 -2.29739,1.04335 -4.3235,1.13761 -23.95704,1.11435 -12.75363,-0.0162 -22.06824,-0.27294 -22.97904,-0.63612 z m -26.85267,-39.56021 c -1.11908,-0.55145 -2.77358,-1.97141 -3.6767,-3.15545 -1.34121,-1.75843 -1.64204,-2.79881 -1.64204,-5.67909 0,-3.80934 1.01929,-5.78454 4.21819,-8.17413 1.62497,-1.21388 2.5675,-1.2703 24.02836,-1.43851 24.96949,-0.1957 25.09787,-0.17741 28.31727,4.04349 1.34257,1.76023 1.65056,2.81066 1.65056,5.62971 0,2.81905 -0.30799,3.86948 -1.65056,5.62971 -3.15842,4.1409 -3.39364,4.17643 -27.54922,4.16086 -18.79947,-0.0116 -21.93,-0.14637 -23.69586,-1.01659 z m -12.36542,-38.87597 c -0.84241,-0.33592 -2.17843,-1.21464 -2.96894,-1.95272 -4.73063,-4.4168 -4.13365,-11.33152 1.3278,-15.37961 1.68894,-1.25187 2.40409,-1.28591 30.50962,-1.45262 32.12159,-0.19061 31.45694,-0.2678 34.74202,4.03913 2.35748,3.09084 2.35748,8.16859 0,11.25943 -3.23911,4.24669 -2.68493,4.17923 -33.98345,4.13596 -17.13844,-0.0236 -28.69274,-0.27702 -29.62705,-0.64957 z m 12.36542,-39.56022 c -1.11908,-0.55147 -2.77358,-1.97143 -3.6767,-3.15548 -1.34121,-1.75842 -1.64204,-2.7988 -1.64204,-5.67906 0,-3.809344 1.01929,-5.784544 4.21819,-8.174154 1.62497,-1.21388 2.5675,-1.2703 24.02836,-1.43849 24.96949,-0.1957 25.09787,-0.1774 28.31727,4.04349 1.34257,1.76023 1.65056,2.810664 1.65056,5.629714 0,2.81903 -0.30799,3.86949 -1.65056,5.62969 -3.15842,4.1409 -3.39364,4.17643 -27.54922,4.16089 -18.79947,-0.0116 -21.93,-0.14638 -23.69586,-1.0166 z m 26.85267,-38.875994 c -0.84238,-0.33592 -2.17841,-1.21462 -2.96894,-1.95269 -4.73049,-4.41672 -4.13369,-11.33099 1.3275,-15.37962 1.66815,-1.23669 2.50838,-1.28811 23.81222,-1.45741 21.39319,-0.17 22.16637,-0.13502 24.75057,1.11586 7.21601,3.4932 7.22493,13.9211 0.0139,17.19562 -2.29739,1.04337 -4.3235,1.13761 -23.95704,1.11438 -12.75363,-0.0162 -22.06824,-0.27297 -22.97904,-0.63614 z"
       id="path3" /></g></svg>
